HIERARCHY
ROOT Hips
{
	OFFSET -14.64140 90.27770 -84.91600
	CHANNELS 6 Xposition Yposition Zposition Zrotation Xrotation Yrotation
	JOINT Spine
	{
		OFFSET 0.00000 13.20850 -1.60436
		CHANNELS 3 Zrotation Xrotation Yrotation
		JOINT Spine1
		{
			OFFSET 0.00000 8.61716 0.00000
			CHANNELS 3 Zrotation Xrotation Yrotation
			JOINT Spine2
			{
				OFFSET 0.00000 8.61717 0.00000
				CHANNELS 3 Zrotation Xrotation Yrotation
				JOINT Spine3
				{
					OFFSET 0.00000 8.61717 0.00000
					CHANNELS 3 Zrotation Xrotation Yrotation
					JOINT Neck
					{
						OFFSET 0.00000 11.07920 1.10792
						CHANNELS 3 Zrotation Xrotation Yrotation
						JOINT Neck1
						{
							OFFSET 0.00000 7.08032 0.00000
							CHANNELS 3 Zrotation Xrotation Yrotation
							JOINT Head
							{
								OFFSET 0.00000 7.08031 0.00000
								CHANNELS 3 Zrotation Xrotation Yrotation
								End site
								{
									OFFSET 0.00000 0.00000 0.00000
								}
							}
						}
					}
					JOINT RightShoulder
					{
						OFFSET -0.01000 7.91373 5.19711
						CHANNELS 3 Zrotation Xrotation Yrotation
						JOINT RightArm
						{
							OFFSET -18.41580 0.00000 0.00000
							CHANNELS 3 Zrotation Xrotation Yrotation
							JOINT RightForeArm
							{
								OFFSET -29.11090 0.00000 0.00000
								CHANNELS 3 Zrotation Xrotation Yrotation
								JOINT RightHand
								{
									OFFSET -24.65040 0.00000 0.00000
									CHANNELS 3 Zrotation Xrotation Yrotation
									JOINT RightHandThumb1
									{
										OFFSET -5.35114 -0.85590 3.97906
										CHANNELS 3 Zrotation Xrotation Yrotation
										JOINT RightHandThumb2
										{
											OFFSET -4.52789 0.00000 0.00000
											CHANNELS 3 Zrotation Xrotation Yrotation
											JOINT RightHandThumb3
											{
												OFFSET -2.46976 0.00000 0.00000
												CHANNELS 3 Zrotation Xrotation Yrotation
												End site
												{
													OFFSET 0.00000 0.00000 0.00000
												}
											}
										}
									}
									JOINT RightHandIndex1
									{
										OFFSET -14.26970 0.00000 2.88139
										CHANNELS 3 Zrotation Xrotation Yrotation
										JOINT RightHandIndex2
										{
											OFFSET -5.48836 0.00000 0.00000
											CHANNELS 3 Zrotation Xrotation Yrotation
											JOINT RightHandIndex3
											{
												OFFSET -3.01859 0.00000 0.00000
												CHANNELS 3 Zrotation Xrotation Yrotation
												End site
												{
													OFFSET 0.00000 0.00000 0.00000
												}
											}
										}
									}
									JOINT RightHandMiddle1
									{
										OFFSET -14.26970 0.00000 -0.09147
										CHANNELS 3 Zrotation Xrotation Yrotation
										JOINT RightHandMiddle2
										{
											OFFSET -6.17441 0.00000 0.00000
											CHANNELS 3 Zrotation Xrotation Yrotation
											JOINT RightHandMiddle3
											{
												OFFSET -3.56743 0.00000 0.00000
												CHANNELS 3 Zrotation Xrotation Yrotation
												End site
												{
													OFFSET 0.00000 0.00000 0.00000
												}
											}
										}
									}
									JOINT RightHandRing1
									{
										OFFSET -12.69180 0.00000 -3.06433
										CHANNELS 3 Zrotation Xrotation Yrotation
										JOINT RightHandRing2
										{
											OFFSET -5.62556 0.00000 0.00000
											CHANNELS 3 Zrotation Xrotation Yrotation
											JOINT RightHandRing3
											{
												OFFSET -3.56744 0.00000 0.00000
												CHANNELS 3 Zrotation Xrotation Yrotation
												End site
												{
													OFFSET 0.00000 0.00000 0.00000
												}
											}
										}
									}
									JOINT RightHandPinky1
									{
										OFFSET -11.11390 0.00000 -6.03719
										CHANNELS 3 Zrotation Xrotation Yrotation
										JOINT RightHandPinky2
										{
											OFFSET -4.52789 0.00000 0.00000
											CHANNELS 3 Zrotation Xrotation Yrotation
											JOINT RightHandPinky3
											{
												OFFSET -2.46976 0.00000 0.00000
												CHANNELS 3 Zrotation Xrotation Yrotation
												End site
												{
													OFFSET 0.00000 0.00000 0.00000
												}
											}
										}
									}
								}
							}
						}
					}
					JOINT LeftShoulder
					{
						OFFSET 0.01000 7.91373 5.19711
						CHANNELS 3 Zrotation Xrotation Yrotation
						JOINT LeftArm
						{
							OFFSET 18.41580 0.00000 0.00000
							CHANNELS 3 Zrotation Xrotation Yrotation
							JOINT LeftForeArm
							{
								OFFSET 29.11090 0.00000 0.00000
								CHANNELS 3 Zrotation Xrotation Yrotation
								JOINT LeftHand
								{
									OFFSET 24.65040 0.00000 0.00000
									CHANNELS 3 Zrotation Xrotation Yrotation
									JOINT LeftHandThumb1
									{
										OFFSET 5.35114 -0.85590 3.97906
										CHANNELS 3 Zrotation Xrotation Yrotation
										JOINT LeftHandThumb2
										{
											OFFSET 4.52789 0.00000 0.00000
											CHANNELS 3 Zrotation Xrotation Yrotation
											JOINT LeftHandThumb3
											{
												OFFSET 2.46977 0.00000 0.00000
												CHANNELS 3 Zrotation Xrotation Yrotation
												End site
												{
													OFFSET 0.00000 0.00000 0.00000
												}
											}
										}
									}
									JOINT LeftHandIndex1
									{
										OFFSET 14.26970 0.00000 2.88139
										CHANNELS 3 Zrotation Xrotation Yrotation
										JOINT LeftHandIndex2
										{
											OFFSET 5.48836 0.00000 0.00000
											CHANNELS 3 Zrotation Xrotation Yrotation
											JOINT LeftHandIndex3
											{
												OFFSET 3.01859 0.00000 0.00000
												CHANNELS 3 Zrotation Xrotation Yrotation
												End site
												{
													OFFSET 0.00000 0.00000 0.00000
												}
											}
										}
									}
									JOINT LeftHandMiddle1
									{
										OFFSET 14.26970 0.00000 -0.09147
										CHANNELS 3 Zrotation Xrotation Yrotation
										JOINT LeftHandMiddle2
										{
											OFFSET 6.17440 0.00000 0.00000
											CHANNELS 3 Zrotation Xrotation Yrotation
											JOINT LeftHandMiddle3
											{
												OFFSET 3.56744 0.00000 0.00000
												CHANNELS 3 Zrotation Xrotation Yrotation
												End site
												{
													OFFSET 0.00000 0.00000 0.00000
												}
											}
										}
									}
									JOINT LeftHandRing1
									{
										OFFSET 12.69180 0.00000 -3.06433
										CHANNELS 3 Zrotation Xrotation Yrotation
										JOINT LeftHandRing2
										{
											OFFSET 5.62556 0.00000 0.00000
											CHANNELS 3 Zrotation Xrotation Yrotation
											JOINT LeftHandRing3
											{
												OFFSET 3.56744 0.00000 0.00000
												CHANNELS 3 Zrotation Xrotation Yrotation
												End site
												{
													OFFSET 0.00000 0.00000 0.00000
												}
											}
										}
									}
									JOINT LeftHandPinky1
									{
										OFFSET 11.11390 0.00000 -6.03719
										CHANNELS 3 Zrotation Xrotation Yrotation
										JOINT LeftHandPinky2
										{
											OFFSET 4.52789 0.00000 0.00000
											CHANNELS 3 Zrotation Xrotation Yrotation
											JOINT LeftHandPinky3
											{
												OFFSET 2.46976 0.00000 0.00000
												CHANNELS 3 Zrotation Xrotation Yrotation
												End site
												{
													OFFSET 0.00000 0.00000 0.00000
												}
											}
										}
									}
								}
							}
						}
					}
					JOINT pCube4
					{
						OFFSET 0.00000 10.91090 1.10792
						CHANNELS 3 Zrotation Xrotation Yrotation
						End site
						{
							OFFSET 0.00000 0.00000 0.00000
						}
					}
				}
			}
		}
	}
	JOINT RightUpLeg
	{
		OFFSET -9.98441 0.00000 0.00000
		CHANNELS 3 Zrotation Xrotation Yrotation
		JOINT RightLeg
		{
			OFFSET 0.00000 -42.11790 0.00000
			CHANNELS 3 Zrotation Xrotation Yrotation
			JOINT RightFoot
			{
				OFFSET 0.00000 -45.00020 -0.00001
				CHANNELS 3 Zrotation Xrotation Yrotation
				JOINT RightForeFoot
				{
					OFFSET 0.00000 -3.74820 0.00000
					CHANNELS 3 Zrotation Xrotation Yrotation
					JOINT RightToeBase
					{
						OFFSET 0.00000 0.06325 14.43120
						CHANNELS 3 Zrotation Xrotation Yrotation
						End site
						{
							OFFSET 0.00000 0.00000 0.00000
						}
					}
				}
			}
		}
	}
	JOINT LeftUpLeg
	{
		OFFSET 9.98441 0.00000 0.00000
		CHANNELS 3 Zrotation Xrotation Yrotation
		JOINT LeftLeg
		{
			OFFSET 0.00000 -42.11800 0.00000
			CHANNELS 3 Zrotation Xrotation Yrotation
			JOINT LeftFoot
			{
				OFFSET 0.00000 -45.00070 0.00000
				CHANNELS 3 Zrotation Xrotation Yrotation
				JOINT LeftForeFoot
				{
					OFFSET 0.00000 -3.74824 0.00000
					CHANNELS 3 Zrotation Xrotation Yrotation
					JOINT LeftToeBase
					{
						OFFSET 0.00000 0.06325 14.43110
						CHANNELS 3 Zrotation Xrotation Yrotation
						End site
						{
							OFFSET 0.00000 0.00000 0.00000
						}
					}
				}
			}
		}
	}
}
MOTION
Frames: 4
Frame Time: 0.050000
0.04195926372775743 -0.022834326762471983 0.0012451808766813423 0.041070970522778597 0.02450088173224589 -0.00484438100726034 -3.651406286163911 6.181938276397065 -0.686633526514103 -1.0218407813977017 4.1067860312442495 0.44162345499743755 -1.0212969444010418 0.7583321629729821 0.025044132267496775 1.2220984707371698 1.0865378196859068 -0.8299140218882635 0.025920087687049072 9.628310338878945 -1.1594786610939283 -0.4174539100354031 -1.6417452021120527 -5.95115002275085 0.012594535800696652 -16.187801120010523 -0.4890826218976971 4.701058558437011 -0.7635361908754943 -14.489182179608857 62.65660028615758 17.419993249549076 12.981453412790884 17.918239308556906 6.121510320354183 94.30633300512582 13.791638874189506 -0.30529574623633204 -7.904186707041931 4.497703643922235 -0.17206945315136238 -1.58648809054797 -0.007261938301444691 -0.04074869778830284 -56.268771512714565 0.024652336881173444 0.03437909197940891 -56.19049469011259 -38.768100766375156 0.04357602102065316 -0.013247045184691324 0.04537453924427966 -0.028778326057070723 0.04844848050726729 0.015773541601716547 0.01819527540713896 0.030451178228156045 -36.70680334785868 0.019363045612664553 -0.04571967425300403 0.005955060259716225 -0.015893277419385322 -0.010665440593754091 -0.03630138934861401 0.011117694628111298 -0.029611822420967607 -19.71334867831901 0.028192103125076164 0.03686770460881319 -0.010932051738122154 0.012872416250326006 -0.032253150340027605 -0.00030665985439479995 -0.02606220567818242 -0.021811000634161883 24.018194286121894 -0.02407118475270754 -0.04468511185392494 28.89589811665204 0.026841747026124848 0.01517197684644151 28.913543226681792 -0.005124094410404929 0.017583381271103947 -4.955371567473896 -0.49919398336742987 12.898347110829471 -62.4943754237933 28.173720409176074 -7.363979123916283 -2.2942153573091053 3.7607299968953534 -63.88072076094407 -13.549241220923802 3.85472857332262 0.3686340888707791 -0.4974412977737558 0.05892967880069499 -8.128402454556001 0.01925761659886188 -0.02851454921693475 44.52575496813131 0.018149718544819494 -0.009828626795957305 44.61266773274618 12.49395637051028 -0.01958902842407018 -0.004711997105759109 0.03127346739680768 0.026742305431055557 -0.02706506622595807 0.032647039460287304 -0.03227014942416849 0.009476277834013152 11.117454133302399 0.018486502324948348 -0.01805310332813538 -0.030950832688921643 -0.03293506546657019 0.010678031328893778 0.012790837490146742 -0.028336443101832563 0.007979501871646791 4.742561865013899 0.04151508806945771 -0.005877482744754547 0.0016431004963009396 0.04167673745148018 -0.0009025268005621826 0.008241333300490254 0.028103139616909783 0.028516992986581162 -5.59161991378009 -0.03426058318688092 -0.004327132895774427 -6.721883193579501 0.03861411604733858 0.038721163271865505 -6.740192933049937 -0.042832846773063045 0.0014620654912501057 0.04005020105801474 -0.04885745732560434 -0.046423283512043646 8.003251938506216 3.535741362342832 -19.233880823010963 -0.011412930917606113 10.408052228534974 0.05602682845482802 -5.612971996817271 -15.648320621622712 3.1724137357648337 0.03329220265246813 -0.010293926409053574 -0.030446416487117114 0.012868161404324249 4.65928293191879 -0.0369352995770474 12.482395691825175 -8.21821460343409 6.888044800349634 0.014536769097916171 46.40593287353215 -0.005054352832444927 -4.284493919407516 -14.764074248080634 -3.8068624511260767 -0.008043016776657025 -0.0010609816368409356 -0.012304123446762412 -0.04502524281976315 -10.696801637642741 0.020641419850555405 
-0.04505060736859766 0.04893679304405277 0.008961667306041489 0.016199174220930382 -0.019933931265755673 0.027715739829863553 -3.6154920649392803 6.278727853692838 -0.7463520563950851 -1.100084675742686 4.099453499697398 0.4539788214556729 -1.0338703958413935 0.7547892770395708 -0.11782424509627404 1.2172283239126873 1.0293235965329273 -0.8048318727451489 -0.00386071864541513 9.465102115140434 -1.1416884155414406 -0.485663382936937 -1.7500830393664668 -5.988259270624815 0.04487787578313808 -16.318388538307037 -0.45298687174179103 4.775357509208988 -0.8490642783525809 -14.326637702526305 62.660636350392835 17.014031606091653 12.55530079519025 19.61880006235756 6.685357166500132 93.8494092298265 14.223355997378023 -0.27147598032823494 -8.105675788028753 4.4992363692717054 -0.16349255912283964 -1.5773075746067353 -0.005047283861210692 -0.03972412064408323 -56.25063682141515 0.021401111897061995 -0.033082656392518395 -56.20934805825521 -38.73794234779155 -0.013115811010524786 -0.03272268508128936 0.03124699460961266 0.03377737921109013 0.002891073576657886 0.04062830680614272 -0.009959028622765171 0.02456297081879069 -36.720911435040364 -0.03834914765993855 -0.01038150793959555 0.022110812090405555 0.03419825894258041 -0.03919829405520829 -0.014692274047072513 -0.01323788770173937 -0.027920028307906228 -19.725557452716572 -0.009101913522441775 0.029716394927696316 -0.011905465472338955 0.028539464826990785 -0.03819333542834567 -0.0470483022508973 0.040939415533031626 -0.01605936670338916 24.036662876042392 0.01771962898723039 -0.010619233998160685 28.868955264348894 -0.0035872370964885438 -0.04762183415612984 28.8277237866209 -0.0025930570530735392 -0.0008519295148333476 -4.9028020983428 -0.48024955743924397 12.746732382302225 -62.24060377861498 28.305822437349697 -7.701044835944934 -3.7941515975367284 4.427757975757127 -66.33777267556711 -13.975148079225827 3.374739327604538 0.5414037228591989 -0.4956377349010634 0.05822903311044524 -8.109132927383348 -0.048646503832968285 0.03773549543738848 44.579727243878125 -0.03482753433443919 0.043286710071528726 44.58628170055062 12.492265218788901 0.023929341573730258 0.004655181244252051 -0.021602885037491137 -0.018226185687223926 -0.042184762846846344 0.013353331707904483 -0.020814642808729942 0.03541122616093247 11.108074237856412 -0.025863547647727296 0.03333673819475207 0.022273622852145597 -0.0315275725879428 0.012955459420838134 0.006512123417804057 -0.022089982465615544 -0.005946958167076766 4.796162150913394 -0.014775189245641559 0.03477138205615624 0.01860230276395531 -0.04275659771092207 0.009880981837481942 0.03099499205850873 0.025223611505053648 0.01986199533051568 -5.634877657185752 -0.04108566293982914 0.015547705136444582 -6.750241618170888 -0.032560447874498626 -0.03624284267836456 -6.701531052435114 0.046974290833873514 0.005500482890942656 0.017869147438559555 -0.013552479044027777 -0.003027884239967698 8.035853955918432 3.501893476429855 -19.199714243421372 -0.0013573143645469854 10.390158528687673 0.05794410093230558 -5.660009442685411 -15.655684174243328 3.1888314466803034 -0.014119478541984051 -0.033709812045181385 0.012457735526633153 0.008821065734033684 4.6985931277797715 0.018909411125264845 12.483057191376734 -8.234520487520097 6.859258022194043 0.010200247144551991 46.4070278888266 -0.028200967171780847 -4.313345131986291 -14.790500172315559 -3.8272331939532234 -0.004875224108908524 0.02181095358444195 -0.013414726526259725 -0.012007791143349477 -10.71105163197001 0.04834623412133136 
-0.0009133616940243676 -0.03567609447224094 0.016139218239582066 -0.0445744381285701 0.02563369338493475 0.012155182282525222 -3.447799172544331 6.328670879448585 -0.7526080316431198 -0.9989709086835689 4.079617879916865 0.47309825197967664 -0.9711523323087291 0.7203397116105744 -0.1391030718722454 1.2184323627100222 1.0393574246911712 -0.8522699243768421 -0.08736658502835697 9.3813130684842 -1.0825247530056499 -0.4510710050589955 -1.7807465711165569 -5.737163622764612 0.043665097170002366 -16.35855610994305 -0.3833819693819884 4.72950243029192 -0.7486156461711245 -14.177036387269501 63.102120053612225 16.84021401886653 12.095143746150956 21.60719707327188 7.2066091439348146 93.86898180233442 14.626651956044983 -0.31582236019134047 -8.256365373415745 4.5735282993529065 -0.17032329035475266 -1.5954067723857301 0.011129218734116191 -0.04711518738156798 -56.25948943874872 0.00025028606173638587 -0.03876247812919928 -56.22149643692975 -38.782056463929706 -0.034288582470293906 -0.027247746509489457 0.02144264319663583 0.014786940983699258 0.006456599755086437 -0.027400410859178964 -0.024260570139220262 0.01933022236251996 -36.71494746160786 -0.004113748156784064 0.007831127195696877 -0.002927755039287785 0.0033060544485098483 0.016188217961323168 -0.001850527185961414 -0.009986471550427827 -0.03169624999083196 -19.73712080128004 -0.04581788159283415 -0.02900207580178255 -0.02900278102487869 0.005605694254933172 -0.03133030987258832 -0.033464052066019205 0.022853675086605862 -0.00966265611482022 24.057593097764308 -0.03746279301281765 -0.03852306331706281 28.87990526945891 -0.0077906082327732 0.026561523881140154 28.877625017876145 -0.0017668935691437751 -0.007377056760207866 -4.587995383117934 -0.44088701208899805 12.656621673214419 -62.12525120693758 28.537590765656386 -8.19320177086186 -5.8531377141593275 5.08951380237341 -69.48028138874758 -14.130494086307014 2.814466255402227 0.814188582932622 -0.4624425464661793 0.11706954281955595 -8.140700127781455 -0.04833214062799337 0.024735221152325855 44.60682909995925 0.0203260785966662 0.012038754138531532 44.54741337630008 12.507297184080988 0.040822975018579774 0.03322221323449139 0.03039683299675387 -0.02334470061030876 -0.029470218599246048 -0.02310797119901661 0.0281459493526489 -0.03556044993561429 11.12279975210502 -0.0343334913606932 0.024734956395486177 0.03286032345907642 -0.0004084107259251822 -0.002045128247606322 -0.00362962013926866 0.0057643170572654855 -0.04395302097978408 4.79685560222642 -0.011248087558442057 0.01420517153690776 -0.020408071056960193 -0.03086299965386606 -0.009336376409518178 0.00844828292280298 0.03777504829708621 0.029729252442603115 -5.650248585852062 -0.03486273668834081 -0.03329366307946397 -6.747987719426744 0.022340678908499046 0.04233406343816781 -6.734542733603611 -0.015973819127775454 0.00905759532850012 -0.03638072962184571 -0.02649276950153377 0.02652287517480737 8.033589358487218 3.5044191415325145 -19.18248200229243 -0.013221143795567018 10.374157031841605 0.011263671742545903 -5.603895289843713 -15.690837718679633 3.1604885351463197 0.04706705483248896 -0.04678850593840081 -0.02043850220084826 0.04910267341519474 4.691632897464979 0.04730769159767446 12.45421959840419 -8.229055632692724 6.89557791766392 0.008692725481972804 46.41184284723078 -0.0402138260948872 -4.285325851307714 -14.769636065424827 -3.850022564475205 -0.01702398060592022 0.03283323651434305 -0.0360342756860537 -0.020462581306937642 -10.742184315099946 -0.03572450152246012 
-0.015325346309833305 0.023592130005270072 -0.008701739686401463 -0.03502961217892308 0.013706899774400386 -0.030878294021225057 -3.328446387590586 6.247650124169598 -0.8115513450833871 -0.9864005732417351 4.022281850647335 0.4239230815084462 -0.9197010324612204 0.6536942492825711 -0.25957146194510533 1.1044944543695636 0.9873374422895177 -0.8084872014727321 -0.1174736623519739 9.423343819468688 -1.009124787593265 -0.41617316709837243 -1.7715748740192165 -5.469779684325193 0.04209670992787647 -16.42067313591976 -0.40547384989949703 4.607689001807387 -0.7028454335948383 -14.14728886730589 63.59926832333404 16.607089969926587 11.573067471886572 24.029841442593387 7.734268000052993 94.01914644915574 14.883206926445848 -0.29836659653729314 -8.36282010675979 4.559448031028484 -0.12184386353410598 -1.5633690835641352 -0.01277300396108598 -0.002045426625577368 -56.23460096039912 -0.04689473749978529 -0.044455219499679566 -56.21066714883595 -38.76937656348963 -0.038318121576031025 -0.029975044310000965 -0.04833922755220852 0.025588556446315965 -0.013915543051098756 0.030052716677350686 0.026183318495847187 0.04513263250646471 -36.68174256467856 -0.017722867037027662 0.019707579858036166 0.03602714096403438 0.006606300859250404 -0.006153548601282353 0.04632205200657812 -0.036450081255942395 0.01213494761287993 -19.796071240284732 0.014429487285932388 -0.016230834888319078 -0.020800831504051043 0.01086662509622412 0.008264299618814513 0.006164154435027088 0.026161959538289144 0.027712883985507298 24.051144123314554 0.013411130117255478 0.037574909615599235 28.869193401550646 -0.042021696671710185 -0.023144406512704527 28.910864880530614 0.01521373270484607 0.038091322893995444 -4.197206163446332 -0.3827708993585284 12.463872942077948 -62.278752963945514 28.7606868160241 -8.907311813850193 -7.9980905829900895 5.6337035848212125 -73.0129423581703 -14.224894770107085 2.2568466183083995 0.9386348849483851 -0.5142205153587007 0.06335197389681055 -8.085478962036483 0.04998440908903618 -0.015375931932278816 44.60073991168846 0.020394722668454292 0.04891681628326239 44.5956932461731 12.438256579326692 -0.02241020891125604 0.008125304608994218 -0.02160468588538338 -0.047879859854323366 -0.0469597420729314 -0.011382987791919822 -0.03426637766219088 -0.004767067428769564 11.116369127764617 0.02114420981355602 0.011107494956477084 0.028467041810903992 -0.030734370144344134 -0.008186130488332064 0.022926174333618723 -0.0016610896171222337 -0.029435742899523644 4.754081580492416 0.02414887889180023 0.0363808031451691 -0.04123136088276169 0.007857763250519694 0.006058691366368651 -0.008261675865602223 -0.029477618716081004 0.02343121568988082 -5.58398650337054 -0.007399759321864373 -0.002413384059915846 -6.720244360549279 0.03546468088135311 0.004742478943711507 -6.762050876116919 0.017289445974922598 0.014977915451469025 0.03466110431157548 0.001999085090255116 -0.016751450583971702 8.066874345481544 3.474685178019232 -19.218034036803875 -0.04186246642201218 10.396134185053196 0.04162469176177004 -5.619083172359963 -15.701574147162122 3.1929798980254525 0.02751125861897635 -0.0446934798141774 0.004468501183897718 0.0329528295179611 4.73087719648874 -0.024315486936819317 12.492823883584872 -8.27991233380718 6.874630137096124 0.04678346136469336 46.36654222379319 -0.027257970480867953 -4.351318546875824 -14.782572860122123 -3.882209528863819 -0.041856065258165966 0.016282081777573117 0.022446833789264594 -0.010545692289130515 -10.778399506495923 -0.015691822880588083 
